<?xml version="1.0" encoding="UTF-8" standalone="no" ?>
<!DOCTYPE svg PUBLIC "-//W3C//DTD SVG 1.1//EN" "http://www.w3.org/Graphics/SVG/1.1/DTD/svg11.dtd">
<svg xmlns="http://www.w3.org/2000/svg" xmlns:xlink="http://www.w3.org/1999/xlink" version="1.1" width="100" height="100" viewBox="0 0 100 100" xml:space="preserve">
<desc>Created with Fabric.js 4.6.0</desc>
<defs>
</defs>
<g transform="matrix(0.74 0 0 0.74 50 50)" id="cJeZq8k1q754qm4YLqIEp"  >
<path style="stroke: rgb(255,255,255); stroke-width: 5; stroke-dasharray: none; stroke-linecap: butt; stroke-dashoffset: 0; stroke-linejoin: miter; stroke-miterlimit: 4; fill: none; fill-rule: nonzero; opacity: 1;" vector-effect="non-scaling-stroke"  transform=" translate(0, 0)" d="M 0 -64.24581 C 35.46369 -64.24581 64.24581 -35.46369000000001 64.24581 0 C 64.24581 35.46369 35.46369000000001 64.24581 0 64.24581 C -35.46369 64.24581 -64.24581 35.46369000000001 -64.24581 0 C -64.24581 -35.46369 -35.46369000000001 -64.24581 0 -64.24581 z" stroke-linecap="round" />
</g>
<g transform="matrix(1 0 0 1 30.79 48.47)" id="PjighySHA867B6C09ql6n"  >
<path style="stroke: rgb(255,255,255); stroke-width: 4; stroke-dasharray: none; stroke-linecap: butt; stroke-dashoffset: 0; stroke-linejoin: miter; stroke-miterlimit: 4; fill: rgb(255,255,255); fill-opacity: 0; fill-rule: nonzero; opacity: 1;" vector-effect="non-scaling-stroke"  transform=" translate(0, 0)" d="M -19.64662 28.5838 C -19.64662 28.5838 -19.56916 26.9041 -18.93601 23.30197 C -18.17425 18.96817 -16.60811 11.851650000000001 -13.40474 1.529679999999999 C -7.92183 -16.13748 -6.81085 -18.47211 -2.60267 -27.934620000000002 L -2.60267 -27.934620000000002 C -2.43408 -28.313720000000004 -2.06546 -28.564760000000003 -1.65095 -28.582770000000004 C -1.23644 -28.600780000000004 -0.84744 -28.382650000000005 -0.6466099999999999 -28.019600000000004 L 7.97343 -12.437230000000005 L 19.64661 -12.437230000000005" stroke-linecap="round" />
</g>
<g transform="matrix(0.76 0 0 0.76 15.42 54.02)" id="15oSscs0sOBEF-G_sySuY"  >
<path style="stroke: rgb(255,255,255); stroke-width: 4; stroke-dasharray: none; stroke-linecap: butt; stroke-dashoffset: 0; stroke-linejoin: miter; stroke-miterlimit: 4; fill: rgb(255,255,255); fill-opacity: 0; fill-rule: nonzero; opacity: 1;" vector-effect="non-scaling-stroke"  transform=" translate(0, 0)" d="M -8.90853 -1.66675 L 8.908519999999998 1.66675" stroke-linecap="round" />
</g>
<g transform="matrix(1.04 0 0 1.04 14.67 60.9)" id="KUsVoLbyLD122xbl4B8JY"  >
<path style="stroke: rgb(255,255,255); stroke-width: 4; stroke-dasharray: none; stroke-linecap: butt; stroke-dashoffset: 0; stroke-linejoin: miter; stroke-miterlimit: 4; fill: rgb(255,255,255); fill-opacity: 0; fill-rule: nonzero; opacity: 1;" vector-effect="non-scaling-stroke"  transform=" translate(0, 0)" d="M -6.26776 -0.51796 L 6.26776 0.51796" stroke-linecap="round" />
</g>
<g transform="matrix(-1 0 0 1 69.77 48.82)" id="204E2DRALnp9wpO_3TGrd"  >
<path style="stroke: rgb(255,255,255); stroke-width: 4; stroke-dasharray: none; stroke-linecap: butt; stroke-dashoffset: 0; stroke-linejoin: miter; stroke-miterlimit: 4; fill: rgb(255,255,255); fill-opacity: 0; fill-rule: nonzero; opacity: 1;" vector-effect="non-scaling-stroke"  transform=" translate(0, 0)" d="M -19.40087 28.93203 C -19.40087 28.93203 -19.199930000000002 26.667340000000003 -18.11741 19.82349 C -17.37392 15.12303 -16.03889 8.877419999999999 -13.65048 1.1814399999999985 C -8.16757 -16.48572 -7.05659 -18.82035 -2.8484099999999994 -28.282860000000003 L -2.8484099999999994 -28.282860000000003 C -2.6798199999999994 -28.661960000000004 -2.3111999999999995 -28.913000000000004 -1.8966899999999995 -28.931010000000004 C -1.4821799999999996 -28.949020000000004 -1.0931799999999996 -28.730890000000006 -0.8923499999999995 -28.367840000000005 L 7.72769 -12.785470000000005 L 19.40087 -12.785470000000005" stroke-linecap="round" />
</g>
<g transform="matrix(-0.76 0 0 0.76 84.4 54.02)" id="VcitRc7OdwV4DIFkArRvI"  >
<path style="stroke: rgb(255,255,255); stroke-width: 4; stroke-dasharray: none; stroke-linecap: butt; stroke-dashoffset: 0; stroke-linejoin: miter; stroke-miterlimit: 4; fill: rgb(255,255,255); fill-opacity: 0; fill-rule: nonzero; opacity: 1;" vector-effect="non-scaling-stroke"  transform=" translate(0, 0)" d="M -8.90853 -1.66675 L -3.949390000000001 -0.7389199999999999 L 8.90852 1.6667400000000003" stroke-linecap="round" />
</g>
<g transform="matrix(-1.04 0 0 1.04 85.15 60.91)" id="K9ZZhMaAJGwYzNVdw4CK1"  >
<path style="stroke: rgb(255,255,255); stroke-width: 4; stroke-dasharray: none; stroke-linecap: butt; stroke-dashoffset: 0; stroke-linejoin: miter; stroke-miterlimit: 4; fill: rgb(255,255,255); fill-opacity: 0; fill-rule: nonzero; opacity: 1;" vector-effect="non-scaling-stroke"  transform=" translate(0, 0)" d="M -6.26776 -0.51796 L 6.26776 0.51796" stroke-linecap="round" />
</g>
<g transform="matrix(1.61 0 0 1.67 37.44 57.2)" id="m0mxTMpQgPA2vK4Qed1gO"  >
<path style="stroke: rgb(255,255,255); stroke-width: 0; stroke-dasharray: none; stroke-linecap: butt; stroke-dashoffset: 0; stroke-linejoin: miter; stroke-miterlimit: 4; fill: rgb(255,255,255); fill-rule: nonzero; opacity: 1;" vector-effect="non-scaling-stroke"  transform=" translate(0, 0)" d="M -1.51188 -3.93462 C -1.51188 -4.14726 -1.3331799999999998 -4.319649999999999 -1.1127399999999998 -4.319649999999999 L 1.1127400000000003 -4.319649999999999 L 1.1127400000000003 -4.319649999999999 C 1.3331800000000003 -4.319649999999999 1.5118800000000003 -4.147269999999999 1.5118800000000003 -3.9346199999999993 L 1.5118800000000003 3.9346300000000007 L 1.5118800000000003 3.9346300000000007 C 1.5118800000000003 4.147270000000001 1.3331800000000003 4.319660000000001 1.1127400000000003 4.319660000000001 L -1.1127399999999998 4.319660000000001 L -1.1127399999999998 4.319660000000001 C -1.3331799999999998 4.319660000000001 -1.51188 4.14728 -1.51188 3.9346300000000007 z" stroke-linecap="round" />
</g>
<g transform="matrix(1.61 0 0 1.66 62.56 57.2)" id="R0JIQKRIbXg-PCYdplWMn"  >
<path style="stroke: rgb(255,255,255); stroke-width: 0; stroke-dasharray: none; stroke-linecap: butt; stroke-dashoffset: 0; stroke-linejoin: miter; stroke-miterlimit: 4; fill: rgb(255,255,255); fill-rule: nonzero; opacity: 1;" vector-effect="non-scaling-stroke"  transform=" translate(0, 0)" d="M -1.51188 -3.93421 C -1.51188 -4.14708 -1.33351 -4.31965 -1.11347 -4.31965 L 1.11347 -4.31965 L 1.11347 -4.31965 C 1.3335 -4.31965 1.51188 -4.14708 1.51188 -3.93421 L 1.51188 3.93421 L 1.51188 3.93421 C 1.51188 4.14708 1.33351 4.31965 1.11347 4.31965 L -1.11347 4.31965 L -1.11347 4.31965 C -1.3335 4.31965 -1.51188 4.14708 -1.51188 3.93421 z" stroke-linecap="round" />
</g>
</svg>